<svg width="2164" height="1030" xmlns="http://www.w3.org/2000/svg" xmlns:xlink="http://www.w3.org/1999/xlink" overflow="hidden"><defs><clipPath id="clip0"><rect x="2013" y="973" width="2164" height="1030"/></clipPath></defs><g clip-path="url(#clip0)" transform="translate(-2013 -973)"><rect x="2578.5" y="1129.5" width="309" height="81.9998" stroke="#355C7D" stroke-width="4.58333" stroke-miterlimit="8" fill="none"/><text fill="#355C7D" font-family="Calibri,Calibri_MSFontService,sans-serif" font-weight="400" font-size="55" transform="matrix(1 0 0 1 2699.95 1188)">CLI</text><rect x="2578.5" y="1332.5" width="309" height="82.0001" stroke="#355C7D" stroke-width="4.58333" stroke-miterlimit="8" fill="none"/><text fill="#355C7D" font-family="Calibri,Calibri_MSFontService,sans-serif" font-weight="400" font-size="55" transform="matrix(1 0 0 1 2616.4 1391)">RESTCONF</text><rect x="2578.5" y="1536.5" width="309" height="80.9998" stroke="#355C7D" stroke-width="4.58333" stroke-miterlimit="8" fill="none"/><text fill="#355C7D" font-family="Calibri,Calibri_MSFontService,sans-serif" font-weight="400" font-size="55" transform="matrix(1 0 0 1 2625.7 1594)">NETCONF</text><rect x="3187.5" y="1204.5" width="269" height="338" stroke="#355C7D" stroke-width="4.58333" stroke-miterlimit="8" fill="none"/><text fill="#355C7D" font-family="Calibri,Calibri_MSFontService,sans-serif" font-weight="400" font-size="55" transform="matrix(1 0 0 1 3227.47 1391)">Backend</text><rect x="3456.5" y="1204.5" width="268" height="338" stroke="#4EC7BA" stroke-width="4.58333" stroke-miterlimit="8" fill="#4EC7BA" fill-opacity="0.168627"/><text fill="#355C7D" font-family="Calibri,Calibri_MSFontService,sans-serif" font-weight="400" font-size="55" transform="matrix(1 0 0 1 3493.29 1358)">IETF<tspan font-size="55" x="92.8125" y="0">-</tspan><tspan font-size="55" x="109.427" y="0">TCP </tspan><tspan font-size="55" x="28.0957" y="66">Plugin</tspan></text><path d="M3484.5 1705.67C3484.5 1720.12 3410.63 1731.83 3319.5 1731.83 3228.37 1731.83 3154.5 1720.12 3154.5 1705.67" stroke="#355C7D" stroke-width="4.58333" stroke-miterlimit="8" fill="none" fill-rule="evenodd"/><path d="M3154.5 1705.67C3154.5 1691.22 3228.37 1679.5 3319.5 1679.5 3410.63 1679.5 3484.5 1691.22 3484.5 1705.67L3484.5 1810.33C3484.5 1824.79 3410.63 1836.5 3319.5 1836.5 3228.37 1836.5 3154.5 1824.79 3154.5 1810.33Z" stroke="#355C7D" stroke-width="4.58333" stroke-miterlimit="8" fill="none" fill-rule="evenodd"/><text fill="#355C7D" font-family="Calibri,Calibri_MSFontService,sans-serif" font-weight="400" font-size="55" transform="matrix(1 0 0 1 3210.09 1788)">Datastore</text><rect x="3865.5" y="1204.5" width="309" height="338" stroke="#4EC7BA" stroke-width="4.58333" stroke-miterlimit="8" fill="#4EC7BA" fill-opacity="0.168627"/><text fill="#355C7D" font-family="Calibri,Calibri_MSFontService,sans-serif" font-weight="400" font-size="55" transform="matrix(1 0 0 1 3922.99 1358)">Network <tspan font-size="55" x="37.7439" y="66">Stack</tspan></text><rect x="2487.5" y="975.5" width="1301" height="1011" stroke="#355C7D" stroke-width="4.58333" stroke-miterlimit="8" fill="none"/><text fill="#355C7D" font-family="Calibri,Calibri_MSFontService,sans-serif" font-weight="700" font-size="55" transform="matrix(1 0 0 1 3067.28 1955)">Clixon</text><path d="M2887.5 1170.5 3187.39 1373.85" stroke="#355C7D" stroke-width="4.58333" stroke-miterlimit="8" fill="none" fill-rule="evenodd"/><path d="M0 0 299.889 0.0332021" stroke="#355C7D" stroke-width="4.58333" stroke-miterlimit="8" fill="none" fill-rule="evenodd" transform="matrix(1 0 0 -1 2887.5 1373.53)"/><path d="M0 0 299.889 203.416" stroke="#355C7D" stroke-width="4.58333" stroke-miterlimit="8" fill="none" fill-rule="evenodd" transform="matrix(1 0 0 -1 2887.5 1576.92)"/><path d="M3729.04 1371.21 3861.2 1371.21 3861.2 1375.79 3729.04 1375.79ZM3755.38 1391.52 3724.49 1373.5 3755.38 1355.48C3756.48 1354.84 3757.88 1355.21 3758.52 1356.3 3759.15 1357.4 3758.79 1358.8 3757.69 1359.44L3730.19 1375.48 3730.19 1371.52 3757.69 1387.56C3758.79 1388.2 3759.15 1389.6 3758.52 1390.7 3757.88 1391.79 3756.48 1392.16 3755.38 1391.52ZM3834.85 1355.48 3865.74 1373.5 3834.85 1391.52C3833.76 1392.16 3832.35 1391.79 3831.72 1390.7 3831.08 1389.6 3831.45 1388.2 3832.54 1387.56L3860.04 1371.52 3860.04 1375.48 3832.54 1359.44C3831.45 1358.8 3831.08 1357.4 3831.72 1356.3 3832.35 1355.21 3833.76 1354.84 3834.85 1355.48Z" fill="#4EC7BA"/><path d="M4.5372-2.29026 295.353-2.19997 295.352 2.38337 4.53577 2.29308ZM30.8772 18.0307-0.0106217-3.31543e-06 30.8884-18.0116C31.9818-18.649 33.3849-18.2793 34.0223-17.1858 34.6597-16.0924 34.29-14.6893 33.1966-14.0519L5.69159 1.98126 5.69282-1.97773 33.1878 14.0725C34.2809 14.7105 34.6497 16.1139 34.0117 17.2069 33.3736 18.3 31.9702 18.6688 30.8772 18.0307ZM269.012-17.9376 299.9 0.0931139 269.001 18.1047C267.907 18.7421 266.504 18.3724 265.867 17.2789 265.229 16.1855 265.599 14.7824 266.692 14.145L294.197-1.88815 294.196 2.07084 266.701-13.9794C265.608-14.6174 265.239-16.0208 265.877-17.1138 266.515-18.2069 267.919-18.5757 269.012-17.9376Z" fill="#355C7D" transform="matrix(1 0 0 -1 2279.5 1170.59)"/><path d="M2284.04 1371.21 2574.85 1371.23 2574.85 1375.81 2284.04 1375.79ZM2310.38 1391.52 2279.49 1373.5 2310.38 1355.48C2311.48 1354.84 2312.88 1355.21 2313.52 1356.31 2314.16 1357.4 2313.79 1358.8 2312.69 1359.44L2285.19 1375.48 2285.19 1371.52 2312.69 1387.56C2313.78 1388.2 2314.15 1389.61 2313.52 1390.7 2312.88 1391.79 2311.47 1392.16 2310.38 1391.52ZM2548.51 1355.5 2579.4 1373.52 2548.5 1391.54C2547.41 1392.18 2546.01 1391.81 2545.37 1390.72 2544.73 1389.62 2545.1 1388.22 2546.2 1387.58L2573.7 1371.54 2573.7 1375.5 2546.2 1359.46C2545.1 1358.82 2544.74 1357.42 2545.37 1356.32 2546.01 1355.23 2547.41 1354.86 2548.51 1355.5Z" fill="#355C7D"/><path d="M2280.04 1574.21 2571.08 1574.3 2571.08 1578.88 2280.04 1578.79ZM2306.38 1594.53 2275.49 1576.5 2306.39 1558.49C2307.48 1557.85 2308.89 1558.22 2309.52 1559.31 2310.16 1560.41 2309.79 1561.81 2308.7 1562.45L2281.19 1578.48 2281.19 1574.52 2308.69 1590.57C2309.78 1591.21 2310.15 1592.61 2309.51 1593.71 2308.87 1594.8 2307.47 1595.17 2306.38 1594.53ZM2544.74 1558.56 2575.63 1576.59 2544.73 1594.6C2543.64 1595.24 2542.23 1594.87 2541.6 1593.78 2540.96 1592.69 2541.33 1591.28 2542.42 1590.64L2569.93 1574.61 2569.93 1578.57 2542.43 1562.52C2541.34 1561.88 2540.97 1560.48 2541.61 1559.39 2542.24 1558.29 2543.65 1557.92 2544.74 1558.56Z" fill="#355C7D"/><text fill="#355C7D" font-family="Calibri,Calibri_MSFontService,sans-serif" font-weight="400" font-size="55" transform="matrix(1 0 0 1 2363.47 1143)">text<tspan font-size="55" x="-13.6011" y="207">https</tspan><tspan font-size="55" x="-2.85327" y="289">http</tspan><tspan font-size="55" x="7.39063" y="409">ssh</tspan><tspan font-size="55" x="8.58228" y="494">tcp</tspan></text><text fill="#355C7D" font-family="Calibri,Calibri_MSFontService,sans-serif" font-weight="400" font-size="55" transform="matrix(-1.83697e-16 -1 1 -1.83697e-16 2087.59 1426)">User <tspan font-size="55" x="-98" y="66">Management</tspan></text><text fill="#355C7D" font-family="Calibri,Calibri_MSFontService,sans-serif" font-weight="400" font-size="46" transform="matrix(1 0 0 1 3018.58 1228)">IPC</text><path d="M2.37594 4.49406 4.7516 131.777 0.169069 131.863-2.20659 4.57959ZM-17.4417 31.2137-0.00019815-0.0106195 18.5943 30.5411C19.2523 31.6223 18.9093 33.0322 17.8282 33.6902 16.747 34.3482 15.3371 34.0052 14.6791 32.924L-1.87293 5.72815 2.08537 5.65427-13.4403 33.4488C-14.0575 34.5538-15.4536 34.9492-16.5586 34.332-17.6635 33.7148-18.0589 32.3187-17.4417 31.2137ZM19.9867 105.143 2.54521 136.368-16.0493 105.816C-16.7073 104.735-16.3643 103.325-15.2832 102.667-14.202 102.009-12.7921 102.352-12.1341 103.433L4.41794 130.629 0.459642 130.703 15.9853 102.908C16.6025 101.803 17.9986 101.408 19.1036 102.025 20.2085 102.642 20.6039 104.038 19.9867 105.143Z" fill="#355C7D" transform="matrix(-1 0 0 1 3322.05 1542.5)"/></g></svg>